# xmcd CD database file
#
# Track frame offsets:
#	150
#	19833
#	37049
#	53035
#	66747
#	81677
#	92291
#	107144
#	118934
#	133272
#	166927
#	182674
#	206098
#	220293
#
# Disc length: 3156 seconds
#
# Revision: 4
# Processed by: cddbd v1.5.2PL0 Copyright (c) Steve Scherf et al.
# Submitted via: CDex 1.51
#
DISCID=d60c520e
DTITLE=The Blues Brothers - 2008 Covers - West End Orchestra and Singers
DYEAR=2008
DGENRE=Blues
TTITLE0=She Caught The Katy
TTITLE1=Peter Gunn Theme
TTITLE2=Gimme Some Lovin'
TTITLE3=Shake A Tail Feather
TTITLE4=Everybody Needs Somebody To Love
TTITLE5=The Old Landmark
TTITLE6=Think
TTITLE7=Theme From 'Rawhide'
TTITLE8=Minnie The Moocher
TTITLE9=Sweet Home Chicago
TTITLE10=Jailhouse Rock
TTITLE11=Shotgun Blues
TTITLE12=Soul Man
TTITLE13=Hey Bartender
EXTD=YEAR: 2008
EXTT0=
EXTT1=
EXTT2=
EXTT3=
EXTT4=
EXTT5=
EXTT6=
EXTT7=
EXTT8=
EXTT9=
EXTT10=
EXTT11=
EXTT12=
EXTT13=
PLAYORDER=
